<svg xmlns:inkscape="http://www.inkscape.org/namespaces/inkscape" xmlns:sodipodi="http://sodipodi.sourceforge.net/DTD/sodipodi-0.dtd" xmlns="http://www.w3.org/2000/svg" xmlns:svg="http://www.w3.org/2000/svg" version="1.1" id="svg849" sodipodi:docname="workframe_black.svg" inkscape:version="1.1.1 (3bf5ae0d25, 2021-09-20)" viewBox="1.43 83.23 207.28 133.36">
  <defs id="defs853"/>
  <sodipodi:namedview id="namedview851" pagecolor="#505050" bordercolor="#ffffff" borderopacity="1" inkscape:pageshadow="0" inkscape:pageopacity="0" inkscape:pagecheckerboard="1" inkscape:document-units="mm" showgrid="false" inkscape:zoom="0.64052329" inkscape:cx="396.55076" inkscape:cy="560.47923" inkscape:window-width="1857" inkscape:window-height="1060" inkscape:window-x="-8" inkscape:window-y="-8" inkscape:window-maximized="1" inkscape:current-layer="g847"/>
  <g style="display:inline" id="g847">
    <path style="fill:#000000;stroke:none;stroke-width:0.264583px;stroke-linecap:butt;stroke-linejoin:miter;stroke-opacity:1;fill-opacity:1" d="M15.275 161.934 1.432 186.16l51.91 29.594s1.432.835 2.744.835c1.313 0 3.342-.477 3.342-.477l136.038-78.52 13.246-23.151-38.186 8.114L57.16 188.187l-17.542-10.501z" id="path843"/>
    <path style="fill:#000000;stroke:none;stroke-width:0.264583px;stroke-linecap:butt;stroke-linejoin:miter;stroke-opacity:1;fill-opacity:1" d="m15.275 161.934 135.093-77.717s.973-.834 2.78-.973c1.806-.138 3.613 1.112 3.613 1.112l51.951 30.084-38.186 8.114-17.656-10.403-115.208 66.846-22.387-17.063M170.728 124.38c-.07-.417-.904-7.713-.904-7.713l36.272-2.71 2.616.483-4.909 3.13z" id="path845"/>
  </g>
</svg>