<svg xmlns="http://www.w3.org/2000/svg" viewBox="1.43 83.23 207.28 133.36"><g style="display:inline"><path style="fill:#fff;stroke:none;stroke-width:.264583px;stroke-linecap:butt;stroke-linejoin:miter;stroke-opacity:1;fill-opacity:1" d="M15.275 161.934 1.432 186.16l51.91 29.594s1.432.835 2.744.835c1.313 0 3.342-.477 3.342-.477l136.038-78.52 13.246-23.151-38.186 8.114L57.16 188.187l-17.542-10.501z"/><path style="fill:#fff;stroke:none;stroke-width:.264583px;stroke-linecap:butt;stroke-linejoin:miter;stroke-opacity:1;fill-opacity:1" d="m15.275 161.934 135.093-77.717s.973-.834 2.78-.973c1.806-.138 3.613 1.112 3.613 1.112l51.951 30.084-38.186 8.114-17.656-10.403-115.208 66.846-22.387-17.063M170.728 124.38c-.07-.417-.904-7.713-.904-7.713l36.272-2.71 2.616.483-4.909 3.13z"/></g></svg>